HIERARCHY
ROOT Hips
{
	OFFSET 0.00000 0.00000 0.00000
	CHANNELS 6 Xposition Yposition Zposition Zrotation Yrotation Xrotation 
	JOINT LHipJoint
	{
		OFFSET 0 0 0
		CHANNELS 3 Zrotation Yrotation Xrotation
		JOINT LeftHip
		{
			OFFSET 1.98141 -1.79044 0.80905
			CHANNELS 3 Zrotation Yrotation Xrotation
			JOINT LeftKnee
			{
				OFFSET 2.48669 -6.83213 0.00000
				CHANNELS 3 Zrotation Yrotation Xrotation
				JOINT LeftAnkle
				{
					OFFSET 2.68940 -7.38907 0.00000
					CHANNELS 3 Zrotation Yrotation Xrotation
					JOINT LeftToe
					{
						OFFSET 0.12857 -0.35324 2.34549
						CHANNELS 3 Zrotation Yrotation Xrotation
						End Site
						{
							OFFSET 0.00000 -0.00000 1.19593
						}
					}
				}
			}
		}
	}
	JOINT RHipJoint
	{
		OFFSET 0 0 0
		CHANNELS 3 Zrotation Yrotation Xrotation
		JOINT RightHip
		{
			OFFSET -1.80120 -1.79044 0.80905
			CHANNELS 3 Zrotation Yrotation Xrotation
			JOINT RightKnee
			{
				OFFSET -2.77667 -7.62884 0.00000
				CHANNELS 3 Zrotation Yrotation Xrotation
				JOINT RightAnkle
				{
					OFFSET -2.72618 -7.49012 0.00000
					CHANNELS 3 Zrotation Yrotation Xrotation
					JOINT RightToe
					{
						OFFSET -0.15954 -0.43820 2.14670
						CHANNELS 3 Zrotation Yrotation Xrotation
						End Site
						{
							OFFSET -0.00000 -0.00000 1.10438
						}
					}
				}
			}
		}
	}
	JOINT lowerback
	{
		OFFSET 0 0 0
		CHANNELS 3 Zrotation Yrotation Xrotation
		JOINT Chest
		{
			OFFSET -0.00825 2.03905 -0.05153
			CHANNELS 3 Zrotation Yrotation Xrotation
			JOINT Chest2
			{
				OFFSET 0.01521 2.04267 0.00496
				CHANNELS 3 Zrotation Yrotation Xrotation
				JOINT lowerneck
				{
					OFFSET 0 0 0
					CHANNELS 3 Zrotation Yrotation Xrotation
					JOINT Neck
					{
						OFFSET 0.04513 1.36240 0.17993
						CHANNELS 3 Zrotation Yrotation Xrotation
						JOINT Head
						{
							OFFSET -0.04116 1.35857 0.01300
							CHANNELS 3 Zrotation Yrotation Xrotation
							End Site
							{
								OFFSET -0.01884 1.44433 -0.01572
							}
						}
					}
				}
				JOINT LeftCollar
				{
					OFFSET 0 0 0
					CHANNELS 3 Zrotation Yrotation Xrotation
					JOINT LeftShoulder
					{
						OFFSET 2.95523 0.86449 0.36905
CHANNELS 3 Zrotation Xrotation Yrotation
						JOINT LeftElbow
						{
OFFSET 0 -5.828450 -0.000000
CHANNELS 3 Zrotation Xrotation Yrotation
							JOINT LeftWrist
							{
OFFSET 0 -3.496910 0.000000
CHANNELS 3 Zrotation Xrotation Yrotation
								JOINT lhand
								{
									OFFSET 0 0 0
CHANNELS 3 Zrotation Xrotation Yrotation
									JOINT LFingers
									{
OFFSET 0 -0.675000 0.000000
CHANNELS 3 Zrotation Xrotation Yrotation
										End Site
										{
OFFSET 0 -0.544200 0.000000
										}
									}
								}
								JOINT LThumb
								{
OFFSET 0 0.000000 0.000000
CHANNELS 3 Zrotation Xrotation Yrotation
									End Site
									{
OFFSET 0 -0.552510 0.552510
									}
								}
							}
						}
					}
				}
				JOINT RightCollar
				{
					OFFSET 0 0 0
					CHANNELS 3 Zrotation Yrotation Xrotation
					JOINT RightShoulder
					{
						OFFSET -3.41586 0.85389 0.25405
CHANNELS 3 Zrotation Xrotation Yrotation
						JOINT RightElbow
						{
OFFSET 0 -5.458590 0.000000
CHANNELS 3 Zrotation Xrotation Yrotation
							JOINT RightWrist
							{
OFFSET 0 -3.584910 0.000000
CHANNELS 3 Zrotation Xrotation Yrotation
								JOINT rhand
								{
									OFFSET 0 0 0
CHANNELS 3 Zrotation Xrotation Yrotation
									JOINT RFingers
									{
OFFSET 0 -0.683730 0.000000
CHANNELS 3 Zrotation Xrotation Yrotation
										End Site
										{
OFFSET 0 -0.551240 0.000000
										}
									}
								}
								JOINT RThumb
								{
OFFSET 0 0.000000 0.000000
CHANNELS 3 Zrotation Xrotation Yrotation
									End Site
									{
OFFSET 0 -0.559660 0.559660
									}
								}
							}
						}
					}
				}
			}
		}
	}
}
MOTION
Frames: 5
Frame Time: 0.008333333333333333
-3.606600 17.637700 18.609600 -7.191900 -73.249700 2.121100 0.000000 0.000000 0.000000 -16.687300 -3.231100 -2.880000 2.019200 8.905900 25.501300 0.370900 -5.006300 -10.874900 0.001500 -0.247500 -0.679900 0.000000 0.000000 0.000000 17.749600 8.550200 -1.473100 -6.012300 -14.440300 45.031100 0.185600 18.211100 -11.038700 -0.111400 -2.152300 5.926700 2.111300 -0.165700 6.967400 4.456600 0.113700 -1.043400 3.448400 0.033800 -5.008100 4.195400 16.204000 -2.670100 -1.540600 21.465700 -0.236700 -0.656200 10.702800 0.960900 -0.000000 0.000000 0.000000 119.753000 -6.005500 62.064900 25.699400 -36.910300 8.706500 -178.195300 -26.213600 63.682000 0.000000 0.000000 0.000000 -7.125000 0.000000 0.000000 149.954300 53.636000 6.862700 -0.000000 0.000000 0.000000 -25.913800 17.885500 42.031200 -44.280200 -50.410900 -21.682600 -25.092500 -26.786800 -51.240400 0.000000 0.000000 0.000000 7.125000 0.000000 -0.000000 8.296600 -23.544500 11.003100
-3.652017 17.614726 18.604124 -7.585148 -71.696645 2.251347 0.000000 0.000000 0.000000 -16.154737 -3.533937 -3.869604 2.319912 9.501763 27.378797 0.297021 -6.830895 -10.132736 0.043347 1.341082 3.687786 0.000000 0.000000 0.000000 18.442479 8.180412 -0.560075 -5.908385 -14.338943 44.612754 -0.019690 17.691726 -12.621574 -0.025040 -0.997461 2.742086 2.466234 -0.042745 6.687518 4.828941 0.277948 -0.671347 3.612948 0.104678 -4.468878 3.479518 15.729799 -2.870932 -2.239894 20.848687 -0.981475 -0.804832 10.385222 0.747924 0.000000 0.000000 0.000000 114.701455 -0.850980 62.463090 26.297121 -37.500025 9.068137 179.268394 -25.596958 64.078823 0.000000 0.000000 0.000000 -7.125000 0.000000 0.000000 149.061434 53.081734 6.657612 0.000000 0.000000 0.000000 -25.561674 17.011252 41.054042 -44.445535 -50.493566 -21.810260 -26.809671 -30.683663 -51.438706 0.000000 0.000000 0.000000 7.125000 0.000000 0.000000 7.646373 -24.200111 10.173095
-3.697291 17.574619 18.588522 -13.023191 -69.688619 6.902700 0.000000 0.000000 0.000000 -13.618457 -3.894782 -5.296254 2.819712 10.394142 30.265760 0.234125 -8.385675 -9.729997 0.025237 0.056991 0.155512 0.000000 0.000000 0.000000 21.195732 7.419887 0.656186 -5.695638 -14.126535 43.747346 -0.328662 16.336037 -14.571751 -0.066881 1.667779 -4.588392 4.664109 0.194161 6.258212 5.582875 0.714825 -0.423401 3.119617 0.267105 -3.973343 1.653554 15.113939 -2.154154 -2.218202 20.071590 -2.433654 -0.736413 10.009878 -0.019578 0.000000 0.000000 0.000000 108.244948 1.899520 60.154245 27.124359 -38.296239 9.576628 76.124375 -27.203873 64.475141 0.000000 0.000000 0.000000 -7.125000 0.000000 0.000000 149.433897 52.761820 6.312177 0.000000 0.000000 0.000000 -25.457101 15.510749 40.377034 -45.706534 -51.108635 -22.787714 -26.426599 -32.350516 -52.404291 0.000000 0.000000 0.000000 7.125000 0.000000 0.000000 8.124647 -24.991641 10.872955
-3.744531 17.533988 18.553028 -17.872031 -67.399431 10.408609 0.000000 0.000000 0.000000 -10.809257 -4.312073 -6.502080 3.450896 11.388705 33.605642 0.237178 -9.707738 -10.331248 0.355979 -3.618814 -10.029313 0.000000 0.000000 0.000000 24.025903 6.189413 2.185853 -5.443903 -13.866736 42.706578 -0.352607 16.075447 -14.646252 -0.065440 1.125807 -3.102363 6.327239 0.210153 6.423925 6.065190 0.825401 0.061400 2.683389 0.290440 -3.548447 0.619659 14.630201 -3.840592 -1.549552 19.418445 -2.475421 -0.309391 9.678462 0.053410 0.000000 0.000000 0.000000 101.216098 5.893500 53.718327 28.903777 -39.931538 10.700193 -179.731970 -32.290432 64.678854 0.000000 0.000000 0.000000 -7.125000 0.000000 0.000000 149.905133 52.650521 6.113805 0.000000 0.000000 0.000000 -25.843972 11.524788 40.398804 -47.764382 -52.050393 -24.400556 -27.163365 -33.979007 -53.444267 0.000000 0.000000 0.000000 7.125000 0.000000 0.000000 8.186894 -26.156647 11.033594
-3.782926 17.515523 18.522137 -18.453311 -65.523727 10.621811 0.000000 0.000000 0.000000 -9.557517 -4.618532 -8.292000 3.981372 12.134238 36.210403 -0.128883 -12.327789 -6.770644 0.179467 2.716007 7.489798 0.000000 0.000000 0.000000 25.004413 5.478875 2.735880 -5.302012 -13.716031 42.111620 -0.338223 16.009657 -14.482194 -0.081331 1.309879 -3.611620 5.825372 0.942971 5.840418 6.253969 1.744096 -0.209181 3.082432 0.760061 -3.526897 -0.607448 13.450842 -3.951803 -0.812354 17.892987 -2.454976 0.035577 8.928987 -0.105323 0.000000 0.000000 0.000000 94.138021 6.567869 47.458726 30.467574 -41.288305 11.717922 -177.054701 -36.287215 64.122936 0.000000 0.000000 0.000000 -7.125000 0.000000 0.000000 150.773660 53.328525 6.416959 0.000000 0.000000 0.000000 -27.409104 7.348072 39.002453 -50.354647 -53.134179 -26.458519 -29.279950 -37.476157 -53.314480 0.000000 0.000000 0.000000 7.125000 0.000000 0.000000 7.303980 -26.645354 9.856853
